<mxfile host="www.draw.io" modified="2020-02-25T15:09:42.750Z" agent="Mozilla/5.0 (Windows NT 10.0; WOW64) AppleWebKit/537.36 (KHTML, like Gecko) Chrome/79.0.3945.136 YaBrowser/20.2.2.177 Yowser/2.5 Safari/537.36" etag="zCZrZMc_7qzt8rz5nZo1" version="12.7.4" type="github">
  <diagram id="4sPLemvLGU7nvDxchz7y" name="Page-1">
    <mxGraphModel dx="679" dy="1998" grid="1" gridSize="10" guides="1" tooltips="1" connect="1" arrows="1" fold="1" page="1" pageScale="1" pageWidth="827" pageHeight="1169" math="0" shadow="0">
      <root>
        <mxCell id="0" />
        <mxCell id="1" parent="0" />
        <mxCell id="3fgUdzcm3lxUPp1o5mde-37" style="edgeStyle=orthogonalEdgeStyle;rounded=0;orthogonalLoop=1;jettySize=auto;html=1;exitX=0.5;exitY=1;exitDx=0;exitDy=0;" edge="1" parent="1" source="3fgUdzcm3lxUPp1o5mde-1">
          <mxGeometry relative="1" as="geometry">
            <mxPoint x="195" y="-110" as="targetPoint" />
          </mxGeometry>
        </mxCell>
        <mxCell id="3fgUdzcm3lxUPp1o5mde-1" value="НАЧАЛО" style="rounded=1;whiteSpace=wrap;html=1;" vertex="1" parent="1">
          <mxGeometry x="155" y="-200" width="80" height="40" as="geometry" />
        </mxCell>
        <mxCell id="3fgUdzcm3lxUPp1o5mde-27" style="edgeStyle=orthogonalEdgeStyle;rounded=0;orthogonalLoop=1;jettySize=auto;html=1;exitX=0.5;exitY=1;exitDx=0;exitDy=0;entryX=0.5;entryY=0;entryDx=0;entryDy=0;" edge="1" parent="1" source="3fgUdzcm3lxUPp1o5mde-2" target="3fgUdzcm3lxUPp1o5mde-4">
          <mxGeometry relative="1" as="geometry" />
        </mxCell>
        <mxCell id="3fgUdzcm3lxUPp1o5mde-30" style="edgeStyle=orthogonalEdgeStyle;rounded=0;orthogonalLoop=1;jettySize=auto;html=1;exitX=1;exitY=0.5;exitDx=0;exitDy=0;entryX=0;entryY=0.5;entryDx=0;entryDy=0;" edge="1" parent="1" source="3fgUdzcm3lxUPp1o5mde-2" target="3fgUdzcm3lxUPp1o5mde-3">
          <mxGeometry relative="1" as="geometry" />
        </mxCell>
        <mxCell id="3fgUdzcm3lxUPp1o5mde-2" value="ОТ прошлого&lt;br&gt;До этого&amp;nbsp;&lt;br&gt;&amp;lt; 2 мин?" style="rhombus;whiteSpace=wrap;html=1;" vertex="1" parent="1">
          <mxGeometry x="130" y="140" width="130" height="110" as="geometry" />
        </mxCell>
        <mxCell id="3fgUdzcm3lxUPp1o5mde-29" style="edgeStyle=orthogonalEdgeStyle;rounded=0;orthogonalLoop=1;jettySize=auto;html=1;exitX=0.5;exitY=1;exitDx=0;exitDy=0;entryX=0.5;entryY=0;entryDx=0;entryDy=0;" edge="1" parent="1" source="3fgUdzcm3lxUPp1o5mde-3" target="3fgUdzcm3lxUPp1o5mde-6">
          <mxGeometry relative="1" as="geometry" />
        </mxCell>
        <mxCell id="3fgUdzcm3lxUPp1o5mde-3" value="time = от прошлого&lt;br&gt;до этого" style="rounded=0;whiteSpace=wrap;html=1;" vertex="1" parent="1">
          <mxGeometry x="352.5" y="175" width="135" height="40" as="geometry" />
        </mxCell>
        <mxCell id="3fgUdzcm3lxUPp1o5mde-28" style="edgeStyle=orthogonalEdgeStyle;rounded=0;orthogonalLoop=1;jettySize=auto;html=1;exitX=1;exitY=0.5;exitDx=0;exitDy=0;entryX=0;entryY=0.5;entryDx=0;entryDy=0;" edge="1" parent="1" source="3fgUdzcm3lxUPp1o5mde-4" target="3fgUdzcm3lxUPp1o5mde-6">
          <mxGeometry relative="1" as="geometry" />
        </mxCell>
        <mxCell id="3fgUdzcm3lxUPp1o5mde-4" value="time = от прошлого&lt;br&gt;до(прошлый +2мин)" style="rounded=0;whiteSpace=wrap;html=1;" vertex="1" parent="1">
          <mxGeometry x="115" y="275" width="160" height="50" as="geometry" />
        </mxCell>
        <mxCell id="3fgUdzcm3lxUPp1o5mde-15" style="edgeStyle=orthogonalEdgeStyle;rounded=0;orthogonalLoop=1;jettySize=auto;html=1;exitX=1;exitY=0.5;exitDx=0;exitDy=0;entryX=0;entryY=0.5;entryDx=0;entryDy=0;" edge="1" parent="1" source="3fgUdzcm3lxUPp1o5mde-6" target="3fgUdzcm3lxUPp1o5mde-10">
          <mxGeometry relative="1" as="geometry" />
        </mxCell>
        <mxCell id="3fgUdzcm3lxUPp1o5mde-6" value="ride +=&amp;nbsp;&lt;br&gt;SexDec(time)&lt;br&gt;" style="rounded=0;whiteSpace=wrap;html=1;" vertex="1" parent="1">
          <mxGeometry x="360" y="280" width="120" height="40" as="geometry" />
        </mxCell>
        <mxCell id="3fgUdzcm3lxUPp1o5mde-16" style="edgeStyle=orthogonalEdgeStyle;rounded=0;orthogonalLoop=1;jettySize=auto;html=1;exitX=1;exitY=0.5;exitDx=0;exitDy=0;entryX=0;entryY=0.5;entryDx=0;entryDy=0;" edge="1" parent="1" source="3fgUdzcm3lxUPp1o5mde-10" target="3fgUdzcm3lxUPp1o5mde-11">
          <mxGeometry relative="1" as="geometry" />
        </mxCell>
        <mxCell id="3fgUdzcm3lxUPp1o5mde-10" value="lastTM = curTM&lt;br&gt;lastState = curState" style="rounded=0;whiteSpace=wrap;html=1;" vertex="1" parent="1">
          <mxGeometry x="520" y="280" width="120" height="40" as="geometry" />
        </mxCell>
        <mxCell id="3fgUdzcm3lxUPp1o5mde-18" style="edgeStyle=orthogonalEdgeStyle;rounded=0;orthogonalLoop=1;jettySize=auto;html=1;exitX=0.5;exitY=0;exitDx=0;exitDy=0;entryX=0.5;entryY=0;entryDx=0;entryDy=0;" edge="1" parent="1" source="3fgUdzcm3lxUPp1o5mde-11" target="3fgUdzcm3lxUPp1o5mde-34">
          <mxGeometry relative="1" as="geometry">
            <mxPoint x="240" y="-80" as="targetPoint" />
            <Array as="points">
              <mxPoint x="740" y="-120" />
              <mxPoint x="195" y="-120" />
            </Array>
          </mxGeometry>
        </mxCell>
        <mxCell id="3fgUdzcm3lxUPp1o5mde-11" value="dic.remove(First)" style="rounded=0;whiteSpace=wrap;html=1;" vertex="1" parent="1">
          <mxGeometry x="680" y="280" width="120" height="40" as="geometry" />
        </mxCell>
        <mxCell id="3fgUdzcm3lxUPp1o5mde-20" style="edgeStyle=orthogonalEdgeStyle;rounded=0;orthogonalLoop=1;jettySize=auto;html=1;exitX=0.5;exitY=1;exitDx=0;exitDy=0;entryX=0.5;entryY=0;entryDx=0;entryDy=0;" edge="1" parent="1" source="3fgUdzcm3lxUPp1o5mde-12" target="3fgUdzcm3lxUPp1o5mde-2">
          <mxGeometry relative="1" as="geometry" />
        </mxCell>
        <mxCell id="3fgUdzcm3lxUPp1o5mde-33" style="edgeStyle=orthogonalEdgeStyle;rounded=0;orthogonalLoop=1;jettySize=auto;html=1;exitX=1;exitY=0.5;exitDx=0;exitDy=0;entryX=0.5;entryY=0;entryDx=0;entryDy=0;" edge="1" parent="1" source="3fgUdzcm3lxUPp1o5mde-12" target="3fgUdzcm3lxUPp1o5mde-10">
          <mxGeometry relative="1" as="geometry" />
        </mxCell>
        <mxCell id="3fgUdzcm3lxUPp1o5mde-12" value="Ехали?" style="rhombus;whiteSpace=wrap;html=1;" vertex="1" parent="1">
          <mxGeometry x="155" y="50" width="80" height="80" as="geometry" />
        </mxCell>
        <mxCell id="3fgUdzcm3lxUPp1o5mde-36" style="edgeStyle=orthogonalEdgeStyle;rounded=0;orthogonalLoop=1;jettySize=auto;html=1;exitX=0.5;exitY=1;exitDx=0;exitDy=0;entryX=0.5;entryY=0;entryDx=0;entryDy=0;" edge="1" parent="1" source="3fgUdzcm3lxUPp1o5mde-17" target="3fgUdzcm3lxUPp1o5mde-12">
          <mxGeometry relative="1" as="geometry" />
        </mxCell>
        <mxCell id="3fgUdzcm3lxUPp1o5mde-17" value="dic.takeFirst" style="rounded=0;whiteSpace=wrap;html=1;" vertex="1" parent="1">
          <mxGeometry x="145" y="-30" width="100" height="40" as="geometry" />
        </mxCell>
        <mxCell id="3fgUdzcm3lxUPp1o5mde-21" value="прошло больше" style="text;html=1;strokeColor=none;fillColor=none;align=center;verticalAlign=middle;whiteSpace=wrap;rounded=0;" vertex="1" parent="1">
          <mxGeometry x="130" y="245" width="60" height="30" as="geometry" />
        </mxCell>
        <mxCell id="3fgUdzcm3lxUPp1o5mde-22" value="Меньше" style="text;html=1;strokeColor=none;fillColor=none;align=center;verticalAlign=middle;whiteSpace=wrap;rounded=0;" vertex="1" parent="1">
          <mxGeometry x="260" y="175" width="40" height="20" as="geometry" />
        </mxCell>
        <mxCell id="3fgUdzcm3lxUPp1o5mde-32" value="стояли" style="text;html=1;strokeColor=none;fillColor=none;align=center;verticalAlign=middle;whiteSpace=wrap;rounded=0;" vertex="1" parent="1">
          <mxGeometry x="260" y="70" width="40" height="20" as="geometry" />
        </mxCell>
        <mxCell id="3fgUdzcm3lxUPp1o5mde-35" style="edgeStyle=orthogonalEdgeStyle;rounded=0;orthogonalLoop=1;jettySize=auto;html=1;exitX=0.5;exitY=1;exitDx=0;exitDy=0;entryX=0.5;entryY=0;entryDx=0;entryDy=0;" edge="1" parent="1" source="3fgUdzcm3lxUPp1o5mde-34" target="3fgUdzcm3lxUPp1o5mde-17">
          <mxGeometry relative="1" as="geometry" />
        </mxCell>
        <mxCell id="3fgUdzcm3lxUPp1o5mde-39" style="edgeStyle=orthogonalEdgeStyle;rounded=0;orthogonalLoop=1;jettySize=auto;html=1;exitX=1;exitY=0.5;exitDx=0;exitDy=0;entryX=0;entryY=0.5;entryDx=0;entryDy=0;" edge="1" parent="1" source="3fgUdzcm3lxUPp1o5mde-34" target="3fgUdzcm3lxUPp1o5mde-38">
          <mxGeometry relative="1" as="geometry" />
        </mxCell>
        <mxCell id="3fgUdzcm3lxUPp1o5mde-34" value="dic.isEmpty?" style="rhombus;whiteSpace=wrap;html=1;" vertex="1" parent="1">
          <mxGeometry x="155" y="-110" width="80" height="60" as="geometry" />
        </mxCell>
        <mxCell id="3fgUdzcm3lxUPp1o5mde-42" style="edgeStyle=orthogonalEdgeStyle;rounded=0;orthogonalLoop=1;jettySize=auto;html=1;exitX=1;exitY=0.5;exitDx=0;exitDy=0;entryX=0;entryY=0.5;entryDx=0;entryDy=0;" edge="1" parent="1" source="3fgUdzcm3lxUPp1o5mde-38" target="3fgUdzcm3lxUPp1o5mde-41">
          <mxGeometry relative="1" as="geometry" />
        </mxCell>
        <mxCell id="3fgUdzcm3lxUPp1o5mde-38" value="Ехали?" style="rhombus;whiteSpace=wrap;html=1;" vertex="1" parent="1">
          <mxGeometry x="280" y="-110" width="80" height="60" as="geometry" />
        </mxCell>
        <mxCell id="3fgUdzcm3lxUPp1o5mde-54" style="edgeStyle=orthogonalEdgeStyle;rounded=0;orthogonalLoop=1;jettySize=auto;html=1;exitX=1;exitY=0.5;exitDx=0;exitDy=0;entryX=1;entryY=0.5;entryDx=0;entryDy=0;" edge="1" parent="1" source="3fgUdzcm3lxUPp1o5mde-40" target="3fgUdzcm3lxUPp1o5mde-53">
          <mxGeometry relative="1" as="geometry">
            <Array as="points">
              <mxPoint x="760" y="20" />
              <mxPoint x="760" y="-180" />
            </Array>
          </mxGeometry>
        </mxCell>
        <mxCell id="3fgUdzcm3lxUPp1o5mde-40" value="ride +=&amp;nbsp;&lt;br&gt;SexDec(time)&lt;br&gt;" style="rounded=0;whiteSpace=wrap;html=1;" vertex="1" parent="1">
          <mxGeometry x="560" width="120" height="40" as="geometry" />
        </mxCell>
        <mxCell id="3fgUdzcm3lxUPp1o5mde-46" style="edgeStyle=orthogonalEdgeStyle;rounded=0;orthogonalLoop=1;jettySize=auto;html=1;exitX=0.5;exitY=1;exitDx=0;exitDy=0;entryX=0.5;entryY=0;entryDx=0;entryDy=0;" edge="1" parent="1" source="3fgUdzcm3lxUPp1o5mde-41" target="3fgUdzcm3lxUPp1o5mde-45">
          <mxGeometry relative="1" as="geometry" />
        </mxCell>
        <mxCell id="3fgUdzcm3lxUPp1o5mde-49" style="edgeStyle=orthogonalEdgeStyle;rounded=0;orthogonalLoop=1;jettySize=auto;html=1;exitX=1;exitY=0.5;exitDx=0;exitDy=0;entryX=0;entryY=0.5;entryDx=0;entryDy=0;" edge="1" parent="1" source="3fgUdzcm3lxUPp1o5mde-41" target="3fgUdzcm3lxUPp1o5mde-48">
          <mxGeometry relative="1" as="geometry" />
        </mxCell>
        <mxCell id="3fgUdzcm3lxUPp1o5mde-41" value="Через 2 минуты &lt;br&gt;новый день?" style="rhombus;whiteSpace=wrap;html=1;" vertex="1" parent="1">
          <mxGeometry x="381.5" y="-125" width="138.5" height="90" as="geometry" />
        </mxCell>
        <mxCell id="3fgUdzcm3lxUPp1o5mde-43" value="КОНЕЦ" style="rounded=1;whiteSpace=wrap;html=1;" vertex="1" parent="1">
          <mxGeometry x="320" y="-200" width="80" height="40" as="geometry" />
        </mxCell>
        <mxCell id="3fgUdzcm3lxUPp1o5mde-47" style="edgeStyle=orthogonalEdgeStyle;rounded=0;orthogonalLoop=1;jettySize=auto;html=1;exitX=1;exitY=0.5;exitDx=0;exitDy=0;entryX=0;entryY=0.5;entryDx=0;entryDy=0;" edge="1" parent="1" source="3fgUdzcm3lxUPp1o5mde-45" target="3fgUdzcm3lxUPp1o5mde-40">
          <mxGeometry relative="1" as="geometry" />
        </mxCell>
        <mxCell id="3fgUdzcm3lxUPp1o5mde-45" value="time = от прошлого&lt;br&gt;до(прошлый +2мин)" style="rounded=0;whiteSpace=wrap;html=1;" vertex="1" parent="1">
          <mxGeometry x="370.75" width="160" height="40" as="geometry" />
        </mxCell>
        <mxCell id="3fgUdzcm3lxUPp1o5mde-52" style="edgeStyle=orthogonalEdgeStyle;rounded=0;orthogonalLoop=1;jettySize=auto;html=1;exitX=0.5;exitY=1;exitDx=0;exitDy=0;entryX=0.5;entryY=0;entryDx=0;entryDy=0;" edge="1" parent="1" source="3fgUdzcm3lxUPp1o5mde-48" target="3fgUdzcm3lxUPp1o5mde-40">
          <mxGeometry relative="1" as="geometry" />
        </mxCell>
        <mxCell id="3fgUdzcm3lxUPp1o5mde-48" value="time = от прошлого&lt;br&gt;до 23:59:59" style="rounded=0;whiteSpace=wrap;html=1;" vertex="1" parent="1">
          <mxGeometry x="552.5" y="-100" width="135" height="40" as="geometry" />
        </mxCell>
        <mxCell id="3fgUdzcm3lxUPp1o5mde-55" style="edgeStyle=orthogonalEdgeStyle;rounded=0;orthogonalLoop=1;jettySize=auto;html=1;exitX=0;exitY=0.5;exitDx=0;exitDy=0;entryX=1;entryY=0.5;entryDx=0;entryDy=0;" edge="1" parent="1" source="3fgUdzcm3lxUPp1o5mde-53" target="3fgUdzcm3lxUPp1o5mde-43">
          <mxGeometry relative="1" as="geometry" />
        </mxCell>
        <mxCell id="3fgUdzcm3lxUPp1o5mde-53" value="записать в QMap&lt;br&gt;&amp;lt;qulonglong, qreal&amp;gt;" style="shape=parallelogram;perimeter=parallelogramPerimeter;whiteSpace=wrap;html=1;" vertex="1" parent="1">
          <mxGeometry x="520" y="-200" width="200" height="40" as="geometry" />
        </mxCell>
      </root>
    </mxGraphModel>
  </diagram>
</mxfile>
